PathFileType	4	(X/Y/Z)	 s09c0303.trc
DataRate	CameraRate	NumFrames	NumMarkers	Units	OrigDataRate	OrigDataStartFrame	OrigNumFrames
200	200	6	50	mm	200	501	2000
Frame#	Time	racr			lacr			c7			jug			rlel			rdr			llel			ldr			s2			lic			ric			lasi			rasi			rpsi			lpsi			rgt			lgt			rth1			rth2			rth3			rth4			rlfc			rmfc			rsh1			rsh2			rsh3			rsh4			rlmal			rmmal			rcal			rtoe			rmt5			lth1			lth2			lth4			lth3			llfc			lmfc			llmal			lmmal			lcal			lmt5			lsh1			lsh2			lsh3			lsh4			ltoe			SBIKE			LBIKE			RBIKE			
		X1	Y1	Z1	X2	Y2	Z2	X3	Y3	Z3	X4	Y4	Z4	X5	Y5	Z5	X6	Y6	Z6	X7	Y7	Z7	X8	Y8	Z8	X9	Y9	Z9	X10	Y10	Z10	X11	Y11	Z11	X12	Y12	Z12	X13	Y13	Z13	X14	Y14	Z14	X15	Y15	Z15	X16	Y16	Z16	X17	Y17	Z17	X18	Y18	Z18	X19	Y19	Z19	X20	Y20	Z20	X21	Y21	Z21	X22	Y22	Z22	X23	Y23	Z23	X24	Y24	Z24	X25	Y25	Z25	X26	Y26	Z26	X27	Y27	Z27	X28	Y28	Z28	X29	Y29	Z29	X30	Y30	Z30	X31	Y31	Z31	X32	Y32	Z32	X33	Y33	Z33	X34	Y34	Z34	X35	Y35	Z35	X36	Y36	Z36	X37	Y37	Z37	X38	Y38	Z38	X39	Y39	Z39	X40	Y40	Z40	X41	Y41	Z41	X42	Y42	Z42	X43	Y43	Z43	X44	Y44	Z44	X45	Y45	Z45	X46	Y46	Z46	X47	Y47	Z47	X48	Y48	Z48	X49	Y49	Z49	X50	Y50	Z50	
501	2.5050	746.516869	1333.597187	-202.627131	668.723216	1202.875274	-519.006649	702.113433	1327.733687	-354.001994	696.784960	1195.896591	-327.026358	671.600169	1111.187982	-67.882666	728.482118	865.799702	-59.024622	473.906041	997.840404	-471.010871	695.538154	892.078485	-444.633753	259.837277	1182.080786	-145.000520	327.856835	1173.184481	-332.574169	446.059485	1132.432152	-72.035198	360.263774	1112.219487	-332.186870	462.938231	1075.019244	-108.915344	320.989131	1192.356901	-106.624751	268.873129	1224.236278	-198.761662	408.462070	983.816227	-33.442525	257.651186	1076.958269	-370.613438	446.354249	855.478274	-68.443190	488.140584	782.527965	-95.273256	481.490584	695.392962	-109.729198	509.801456	793.155017	-122.409180	467.111162	594.360345	-140.635480	423.211142	592.237221	-229.676213	388.702634	532.308309	-93.848521	344.829928	454.772642	-102.181841	271.670220	407.944826	-87.496348	356.837968	442.118860	-138.421353	196.309028	335.362830	-76.011294	197.881422	337.688410	-154.692864	128.399004	380.495196	-104.335307	229.471438	138.031842	-133.999567	186.884684	201.527066	-63.044221	349.029186	979.321200	-402.684202	426.567620	948.907595	-420.594091	446.585293	976.852807	-411.302422	480.533166	878.479469	-440.146043	548.949173	791.151770	-444.912122	590.443906	774.074023	-354.011235	342.019673	494.776466	-408.322642	357.914044	507.756862	-331.508527	260.139547	461.749729	-363.623033	423.413506	409.660670	-437.764176	491.808667	708.387298	-452.926646	459.570250	629.296249	-435.265532	388.886304	577.148903	-420.949374	486.411737	616.043836	-408.997816	518.733170	435.716215	-373.324559	-64.090504	851.405083	-239.279766	20.912675	84.971656	-442.177460	21.177740	84.146283	-43.729946	
502	2.5100	745.295042	1333.585823	-202.136172	669.609924	1201.059772	-518.197593	701.424166	1327.073261	-354.146802	696.832461	1194.833248	-326.157330	670.398487	1110.807105	-67.594919	728.792738	866.239232	-58.780039	474.049930	996.543383	-472.680363	695.379195	891.988553	-445.174313	258.333560	1180.134955	-146.796841	327.954459	1170.455807	-334.163199	444.365403	1131.813703	-72.411027	360.576343	1109.515922	-333.057595	461.316385	1074.250807	-109.158919	319.169013	1191.100439	-107.987683	267.556700	1221.917226	-201.193961	407.827564	982.577498	-33.237529	258.069498	1073.131921	-372.022321	445.022920	854.395489	-68.551347	487.283691	781.824220	-94.958326	481.427853	694.274109	-109.244920	508.840873	792.313882	-122.331342	468.252339	593.664966	-141.083274	424.340084	592.006902	-230.322466	389.063368	533.645145	-94.509421	343.630535	457.032083	-102.633356	269.577284	411.613621	-87.976378	355.652643	443.762632	-138.748016	192.854766	340.324953	-76.402212	195.147057	342.424032	-155.159307	125.258815	385.731070	-104.817762	226.194888	143.115089	-133.668204	183.266105	206.820416	-62.984010	349.641508	975.789549	-403.327138	427.014158	944.803984	-420.897894	446.888890	972.818846	-412.166651	480.693098	873.906169	-439.657563	549.276912	786.709717	-443.931051	590.243131	769.780450	-352.785533	344.344177	488.936999	-408.476394	359.930413	501.891387	-331.292072	262.661937	455.034090	-363.698779	426.436354	404.311470	-437.725178	492.639089	703.554778	-452.195350	460.972611	624.224660	-434.604095	390.692923	571.595667	-420.765651	487.783008	611.311839	-408.240452	521.526235	431.108082	-373.328807	-64.088674	851.393747	-239.338182	20.932579	84.936826	-442.157113	21.187188	84.151099	-43.735158	
503	2.5150	744.189073	1333.372674	-201.797118	670.622677	1199.199485	-517.430181	700.909597	1326.260572	-354.457366	696.948053	1193.743712	-325.225568	668.997024	1110.724419	-66.971027	728.517306	866.323975	-58.446042	473.136268	995.233922	-474.449875	694.871119	892.393275	-446.005161	256.792772	1178.182258	-148.693716	328.046274	1167.776590	-335.831956	442.468847	1130.922821	-72.889983	360.793288	1107.022995	-333.615789	459.531493	1073.384946	-109.545836	317.288483	1189.820175	-109.211562	266.179707	1219.569666	-203.622481	407.079383	981.196081	-32.944226	258.996785	1069.176072	-373.097170	443.695719	853.319348	-68.655160	486.270236	781.070875	-94.819915	481.203245	693.531923	-108.767337	507.723558	791.682166	-122.382649	469.494263	593.251667	-141.330318	425.705897	591.635403	-230.679127	389.474576	535.025262	-95.047688	342.565146	459.219947	-102.962955	267.704738	415.314158	-88.369710	354.566655	445.486638	-138.906947	189.781102	345.425730	-76.681537	192.201251	347.670999	-155.387475	122.489408	391.055335	-105.233225	223.026987	148.358898	-133.240037	179.859258	212.085322	-62.883815	350.654111	972.195218	-404.229679	427.553365	940.464420	-422.072508	446.821187	969.038631	-413.991085	481.151976	869.325534	-439.557872	549.564773	781.918518	-442.820659	589.524086	765.764971	-351.658275	346.466285	482.796974	-408.289308	361.310308	495.970314	-331.197919	264.939477	448.137878	-363.760798	429.156038	398.861430	-437.713916	493.368058	698.560514	-451.292035	462.266035	619.022994	-433.900072	392.306943	565.739740	-420.443472	488.987512	606.321235	-407.284152	524.145586	426.412850	-373.302982	-64.105903	851.377088	-239.372316	20.922846	84.877228	-442.118085	21.204635	84.140288	-43.711730	
504	2.5200	743.187819	1332.991110	-200.999757	671.820703	1197.248610	-516.736820	700.669024	1325.404426	-354.357608	697.055183	1192.636584	-324.405932	667.789026	1110.494804	-66.315520	728.121315	866.404221	-57.954971	470.540314	993.689798	-475.893284	694.770768	892.531462	-446.411262	255.184227	1176.150653	-150.667271	328.133680	1165.156498	-337.584766	440.361152	1130.114769	-73.425122	360.943754	1104.327566	-334.714419	457.687768	1072.470136	-109.794167	315.265398	1188.339248	-110.726063	264.843132	1217.288524	-205.950050	406.048404	979.920128	-32.798354	259.459817	1065.185417	-374.798029	442.229694	852.398732	-68.840681	485.224867	780.273624	-94.810982	481.147145	692.368940	-108.328289	506.729598	790.933589	-122.284987	470.754974	592.810428	-141.418488	427.376750	591.047339	-230.729781	390.163387	536.312228	-95.373136	341.572848	461.405387	-103.238427	265.961472	418.998596	-88.689530	353.603765	447.303101	-138.939084	186.901516	350.523192	-76.880373	189.131112	353.343619	-155.420657	119.456427	396.516447	-106.165975	220.157391	153.463811	-132.672942	176.453047	217.565336	-62.767353	352.089271	968.272011	-405.310860	428.804910	936.144850	-422.674637	446.557546	965.144426	-416.514963	482.017088	864.700267	-439.936105	549.842602	776.981267	-441.503822	588.595042	761.343702	-350.499174	348.503297	476.840407	-408.804410	362.600237	489.849216	-330.896209	267.003797	441.079725	-363.906988	431.655110	393.307354	-437.744558	493.922051	693.277993	-450.285160	463.367464	613.416442	-433.065908	394.592065	559.234016	-419.173082	490.218288	600.519482	-405.567040	526.505366	421.656697	-373.299364	-64.091183	851.371305	-239.380355	20.948283	84.892623	-442.153279	21.233762	84.154897	-43.703357	
505	2.5250	742.261490	1332.398896	-200.084124	673.141247	1195.109569	-516.000182	700.579915	1324.362310	-354.155304	697.212294	1191.496218	-323.606739	666.320222	1110.220527	-65.388504	727.679020	866.375177	-57.454575	467.678395	991.309715	-477.266680	694.132435	892.491437	-446.651706	253.550708	1174.163489	-152.766489	328.220351	1162.602259	-339.427076	438.129501	1129.183457	-73.995202	361.150513	1101.666825	-335.913100	455.768872	1071.371261	-110.046239	313.115224	1186.946001	-112.281669	263.250277	1215.213120	-207.866859	404.634968	978.631599	-32.661404	260.015250	1061.159644	-376.603917	440.794616	851.473655	-69.096490	484.326418	779.690815	-94.753412	481.043444	691.720788	-107.936667	505.846275	790.320806	-122.296696	472.152104	592.800257	-141.325081	429.224055	590.380168	-230.612546	390.701506	537.697133	-95.593392	340.734789	463.611862	-103.368101	264.330501	422.692927	-88.870330	352.633624	449.247077	-138.944672	184.221218	355.680960	-77.365331	186.023747	359.356201	-155.302145	116.456414	401.896215	-108.546583	217.340958	158.488159	-131.269170	172.909583	223.219665	-62.481559	354.181301	964.123257	-406.610929	430.868845	931.386073	-423.699037	458.856251	957.227237	-411.762719	483.277351	859.221260	-439.991230	549.775503	771.956339	-440.207466	587.310262	756.742177	-348.836711	350.039226	470.164684	-408.453456	367.662657	482.804677	-328.575951	268.959052	433.811125	-364.118175	433.977432	387.569854	-437.685756	494.359044	687.772495	-449.210179	464.280385	607.879263	-432.184823	395.919800	552.973269	-418.898661	491.003479	595.162739	-404.467562	528.660560	416.791477	-373.261830	-64.091441	851.362689	-239.397113	20.923332	84.890132	-442.143179	21.226348	84.144840	-43.697449	
506	2.5300	741.460971	1331.537089	-199.094593	674.543601	1192.971332	-515.300962	700.714543	1323.197870	-353.905868	697.365410	1190.383161	-322.677340	664.828458	1109.910610	-64.410516	727.254485	866.317889	-56.882796	467.153026	988.546910	-478.753242	693.595835	892.447091	-446.828253	251.877769	1172.205144	-154.983817	328.312289	1160.116926	-341.364598	435.750725	1128.141950	-74.693640	361.293099	1099.188015	-337.128981	453.660298	1070.372501	-110.392251	310.855010	1185.508185	-113.834767	262.163865	1212.366978	-210.727552	402.835031	977.396367	-32.613856	260.641172	1057.132793	-378.516923	439.404254	850.807707	-69.408126	483.496165	779.324477	-94.706631	481.163132	691.337760	-107.618909	505.060509	789.976745	-122.385984	473.569219	592.914645	-141.117296	430.986912	589.769778	-230.371194	391.275698	539.107907	-95.668660	339.963960	466.039703	-103.362987	262.758422	426.398185	-89.214397	351.835080	451.199700	-138.787445	180.959641	361.520635	-78.037510	182.966264	365.623052	-155.075228	114.206465	407.444387	-110.236333	214.577252	163.721138	-130.551092	169.471924	229.203709	-62.314987	356.394139	959.758443	-408.410403	433.000819	925.906807	-424.226586	461.113056	951.526724	-413.124752	484.404087	853.089431	-439.727488	549.771793	766.863713	-438.754486	585.664682	751.837962	-346.983144	351.662981	463.879351	-408.741139	367.271015	476.750703	-329.846969	269.592911	427.608938	-365.253001	436.109974	381.731138	-437.637785	494.557964	682.224477	-448.082839	465.169658	601.670645	-430.778479	396.165065	547.059423	-419.150642	491.383264	590.143521	-403.879432	530.660674	411.805733	-373.168429	-64.086941	851.328739	-239.364074	20.915838	84.843518	-442.109075	21.220371	84.133095	-43.700558	
